<svg width="48" height="48" viewBox="0 0 48 48" fill="none" xmlns="http://www.w3.org/2000/svg">
<path d="M29.42 24.58C29.2341 24.3925 29.0129 24.2438 28.7692 24.1422C28.5254 24.0407 28.264 23.9884 28 23.9884C27.736 23.9884 27.4746 24.0407 27.2308 24.1422C26.9871 24.2438 26.7659 24.3925 26.58 24.58L24 27.18L21.42 24.58C21.0434 24.2034 20.5326 23.9918 20 23.9918C19.4674 23.9918 18.9566 24.2034 18.58 24.58C18.2034 24.9566 17.9918 25.4674 17.9918 26C17.9918 26.5326 18.2034 27.0434 18.58 27.42L21.18 30L18.58 32.58C18.3925 32.7659 18.2438 32.9871 18.1422 33.2308C18.0407 33.4746 17.9884 33.736 17.9884 34C17.9884 34.264 18.0407 34.5254 18.1422 34.7692C18.2438 35.0129 18.3925 35.2341 18.58 35.42C18.7659 35.6075 18.9871 35.7562 19.2308 35.8578C19.4746 35.9593 19.736 36.0116 20 36.0116C20.264 36.0116 20.5254 35.9593 20.7692 35.8578C21.0129 35.7562 21.2341 35.6075 21.42 35.42L24 32.82L26.58 35.42C26.7659 35.6075 26.9871 35.7562 27.2308 35.8578C27.4746 35.9593 27.736 36.0116 28 36.0116C28.264 36.0116 28.5254 35.9593 28.7692 35.8578C29.0129 35.7562 29.2341 35.6075 29.42 35.42C29.6075 35.2341 29.7562 35.0129 29.8578 34.7692C29.9593 34.5254 30.0116 34.264 30.0116 34C30.0116 33.736 29.9593 33.4746 29.8578 33.2308C29.7562 32.9871 29.6075 32.7659 29.42 32.58L26.82 30L29.42 27.42C29.6075 27.2341 29.7562 27.0129 29.8578 26.7692C29.9593 26.5254 30.0116 26.264 30.0116 26C30.0116 25.736 29.9593 25.4746 29.8578 25.2308C29.7562 24.9871 29.6075 24.7659 29.42 24.58ZM40 17.88C39.9792 17.6963 39.9389 17.5153 39.88 17.34V17.16C39.7838 16.9544 39.6556 16.7653 39.5 16.6L27.5 4.6C27.3347 4.44443 27.1456 4.31616 26.94 4.22H26.74C26.5455 4.11601 26.3365 4.04184 26.12 4H14C12.4087 4 10.8826 4.63214 9.75736 5.75736C8.63214 6.88258 8 8.4087 8 10V38C8 39.5913 8.63214 41.1174 9.75736 42.2426C10.8826 43.3679 12.4087 44 14 44H34C35.5913 44 37.1174 43.3679 38.2426 42.2426C39.3679 41.1174 40 39.5913 40 38V18C40 18 40 18 40 17.88ZM28 10.82L33.18 16H30C29.4696 16 28.9609 15.7893 28.5858 15.4142C28.2107 15.0391 28 14.5304 28 14V10.82ZM36 38C36 38.5304 35.7893 39.0391 35.4142 39.4142C35.0391 39.7893 34.5304 40 34 40H14C13.4696 40 12.9609 39.7893 12.5858 39.4142C12.2107 39.0391 12 38.5304 12 38V10C12 9.46957 12.2107 8.96086 12.5858 8.58579C12.9609 8.21071 13.4696 8 14 8H24V14C24 15.5913 24.6321 17.1174 25.7574 18.2426C26.8826 19.3679 28.4087 20 30 20H36V38Z" fill="#324A6D"/>
</svg>
