<svg width="48" height="48" viewBox="0 0 48 48" fill="none" xmlns="http://www.w3.org/2000/svg">
<path d="M41.42 33.42L36.58 28.58C36.3941 28.3925 36.1729 28.2438 35.9292 28.1422C35.6854 28.0407 35.424 27.9884 35.16 27.9884C34.896 27.9884 34.6346 28.0407 34.3908 28.1422C34.1471 28.2438 33.9259 28.3925 33.74 28.58L26.58 35.74C26.3946 35.9269 26.248 36.1485 26.1485 36.3922C26.0489 36.6359 25.9985 36.8968 26 37.16V42C26 42.5304 26.2107 43.0391 26.5858 43.4142C26.9609 43.7893 27.4696 44 28 44H32.84C33.1032 44.0015 33.3641 43.9511 33.6078 43.8515C33.8515 43.752 34.0731 43.6054 34.26 43.42L41.42 36.26C41.6075 36.0741 41.7562 35.8529 41.8578 35.6092C41.9593 35.3654 42.0116 35.104 42.0116 34.84C42.0116 34.576 41.9593 34.3146 41.8578 34.0708C41.7562 33.8271 41.6075 33.6059 41.42 33.42ZM32 40H30V38L35.16 32.84L37.16 34.84L32 40ZM20 40H12C11.4696 40 10.9609 39.7893 10.5858 39.4142C10.2107 39.0391 10 38.5304 10 38V10C10 9.46957 10.2107 8.96086 10.5858 8.58579C10.9609 8.21071 11.4696 8 12 8H22V14C22 15.5913 22.6321 17.1174 23.7574 18.2426C24.8826 19.3679 26.4087 20 28 20H34V22C34 22.5304 34.2107 23.0391 34.5858 23.4142C34.9609 23.7893 35.4696 24 36 24C36.5304 24 37.0391 23.7893 37.4142 23.4142C37.7893 23.0391 38 22.5304 38 22V18C38 18 38 18 38 17.88C37.9792 17.6963 37.9389 17.5153 37.88 17.34V17.16C37.7838 16.9544 37.6556 16.7653 37.5 16.6L25.5 4.6C25.3347 4.44443 25.1456 4.31616 24.94 4.22C24.8803 4.21152 24.8197 4.21152 24.76 4.22L24.12 4H12C10.4087 4 8.88258 4.63214 7.75736 5.75736C6.63214 6.88258 6 8.4087 6 10V38C6 39.5913 6.63214 41.1174 7.75736 42.2426C8.88258 43.3679 10.4087 44 12 44H20C20.5304 44 21.0391 43.7893 21.4142 43.4142C21.7893 43.0391 22 42.5304 22 42C22 41.4696 21.7893 40.9609 21.4142 40.5858C21.0391 40.2107 20.5304 40 20 40ZM26 10.82L31.18 16H28C27.4696 16 26.9609 15.7893 26.5858 15.4142C26.2107 15.0391 26 14.5304 26 14V10.82ZM16 28H28C28.5304 28 29.0391 27.7893 29.4142 27.4142C29.7893 27.0391 30 26.5304 30 26C30 25.4696 29.7893 24.9609 29.4142 24.5858C29.0391 24.2107 28.5304 24 28 24H16C15.4696 24 14.9609 24.2107 14.5858 24.5858C14.2107 24.9609 14 25.4696 14 26C14 26.5304 14.2107 27.0391 14.5858 27.4142C14.9609 27.7893 15.4696 28 16 28ZM16 20H18C18.5304 20 19.0391 19.7893 19.4142 19.4142C19.7893 19.0391 20 18.5304 20 18C20 17.4696 19.7893 16.9609 19.4142 16.5858C19.0391 16.2107 18.5304 16 18 16H16C15.4696 16 14.9609 16.2107 14.5858 16.5858C14.2107 16.9609 14 17.4696 14 18C14 18.5304 14.2107 19.0391 14.5858 19.4142C14.9609 19.7893 15.4696 20 16 20ZM20 32H16C15.4696 32 14.9609 32.2107 14.5858 32.5858C14.2107 32.9609 14 33.4696 14 34C14 34.5304 14.2107 35.0391 14.5858 35.4142C14.9609 35.7893 15.4696 36 16 36H20C20.5304 36 21.0391 35.7893 21.4142 35.4142C21.7893 35.0391 22 34.5304 22 34C22 33.4696 21.7893 32.9609 21.4142 32.5858C21.0391 32.2107 20.5304 32 20 32Z" fill="#324A6D"/>
</svg>
