<svg width="48" height="48" viewBox="0 0 48 48" fill="none" xmlns="http://www.w3.org/2000/svg">
<path d="M43.84 23.2C39.8 13.82 32.2 8 24 8C15.8 8 8.20001 13.82 4.16001 23.2C4.04988 23.4523 3.99304 23.7247 3.99304 24C3.99304 24.2753 4.04988 24.5477 4.16001 24.8C8.20001 34.18 15.8 40 24 40C32.2 40 39.8 34.18 43.84 24.8C43.9501 24.5477 44.007 24.2753 44.007 24C44.007 23.7247 43.9501 23.4523 43.84 23.2V23.2ZM24 36C17.66 36 11.66 31.42 8.20001 24C11.66 16.58 17.66 12 24 12C30.34 12 36.34 16.58 39.8 24C36.34 31.42 30.34 36 24 36ZM24 16C22.4178 16 20.871 16.4692 19.5555 17.3482C18.2399 18.2273 17.2145 19.4767 16.609 20.9385C16.0035 22.4003 15.845 24.0089 16.1537 25.5607C16.4624 27.1126 17.2243 28.538 18.3432 29.6569C19.462 30.7757 20.8874 31.5376 22.4393 31.8463C23.9911 32.155 25.5997 31.9965 27.0615 31.391C28.5233 30.7855 29.7727 29.7602 30.6518 28.4446C31.5308 27.129 32 25.5823 32 24C32 21.8783 31.1572 19.8434 29.6569 18.3431C28.1566 16.8429 26.1217 16 24 16V16ZM24 28C23.2089 28 22.4355 27.7654 21.7777 27.3259C21.1199 26.8864 20.6072 26.2616 20.3045 25.5307C20.0017 24.7998 19.9225 23.9956 20.0769 23.2196C20.2312 22.4437 20.6122 21.731 21.1716 21.1716C21.731 20.6122 22.4437 20.2312 23.2197 20.0769C23.9956 19.9225 24.7998 20.0017 25.5307 20.3045C26.2616 20.6072 26.8864 21.1199 27.3259 21.7777C27.7654 22.4355 28 23.2089 28 24C28 25.0609 27.5786 26.0783 26.8284 26.8284C26.0783 27.5786 25.0609 28 24 28Z" fill="#E62B70"/>
</svg>
